<?xml version="1.0" standalone="no"?>
<!DOCTYPE svg PUBLIC "-//W3C//DTD SVG 20010904//EN"
 "http://www.w3.org/TR/2001/REC-SVG-20010904/DTD/svg10.dtd">
<svg version="1.0" xmlns="http://www.w3.org/2000/svg"
 width="280.000000pt" height="280.000000pt" viewBox="0 0 280.000000 280.000000"
 preserveAspectRatio="xMidYMid meet">
<metadata>
Created by potrace 1.11, written by Peter Selinger 2001-2013
</metadata>
<g transform="translate(0.000000,280.000000) scale(0.100000,-0.100000)"
fill="#000000" stroke="none">
<path d="M1264 2590 c-28 -18 -33 -19 -44 -5 -18 21 -37 19 -51 -7 -18 -34
-30 -38 -59 -23 -28 14 -50 5 -50 -20 0 -6 -6 -19 -13 -28 -10 -15 -17 -16
-46 -6 -39 14 -51 3 -51 -49 0 -42 -16 -73 -34 -66 -8 3 -24 1 -35 -6 -17 -9
-19 -15 -11 -30 9 -16 5 -22 -21 -35 -23 -12 -30 -22 -26 -36 4 -15 -5 -26
-36 -45 -123 -76 -218 -158 -307 -263 -185 -221 -277 -475 -278 -768 0 -144
16 -250 54 -368 132 -402 441 -693 850 -800 136 -36 348 -45 489 -21 510 87
903 479 989 988 23 133 17 340 -14 468 -77 322 -262 577 -545 755 -49 31 -93
62 -97 70 -5 7 -4 24 1 37 16 41 -4 60 -54 54 -40 -6 -43 -5 -38 14 9 33 -13
50 -50 39 -18 -5 -33 -9 -35 -9 -1 0 1 19 4 41 l7 42 -55 -7 c-54 -7 -57 -6
-77 23 -15 21 -30 30 -49 30 -15 0 -54 5 -87 11 -33 6 -77 12 -98 14 -21 2
-44 9 -50 15 -17 17 -48 13 -83 -9z"/>
</g>
</svg>
